<?xml version="1.0" encoding="utf-8"?>
<!-- Generator: Adobe Illustrator 16.0.0, SVG Export Plug-In . SVG Version: 6.00 Build 0)  -->
<!DOCTYPE svg PUBLIC "-//W3C//DTD SVG 1.1//EN" "http://www.w3.org/Graphics/SVG/1.1/DTD/svg11.dtd">
<svg version="1.1" id="Layer_1" xmlns="http://www.w3.org/2000/svg" xmlns:xlink="http://www.w3.org/1999/xlink" x="0px" y="0px"
	 width="200px" height="200px" viewBox="0 0 200 200" enable-background="new 0 0 200 200" xml:space="preserve">
<g>
	<path fill="#FFFFFF" d="M179.32,51.757H20.68c-7.238,0-13.104-5.866-13.104-13.104c0-7.238,5.866-13.104,13.104-13.104h158.64
		c7.238,0,13.104,5.866,13.104,13.104C192.424,45.891,186.559,51.757,179.32,51.757z"/>
	<path fill="#FFFFFF" d="M179.32,112.581H20.68c-7.238,0-13.104-5.865-13.104-13.106c0-7.237,5.866-13.104,13.104-13.104h158.64
		c7.238,0,13.104,5.867,13.104,13.104C192.424,106.716,186.559,112.581,179.32,112.581z"/>
	<path fill="#FFFFFF" d="M179.32,174.451H20.68c-7.238,0-13.104-5.865-13.104-13.104c0-7.24,5.866-13.104,13.104-13.104h158.64
		c7.238,0,13.104,5.866,13.104,13.104C192.424,168.585,186.559,174.451,179.32,174.451z"/>
</g>
</svg>
